<mxfile host="app.diagrams.net" modified="2023-05-04T16:22:12.485Z" agent="Mozilla/5.0 (Windows NT 10.0; Win64; x64) AppleWebKit/537.36 (KHTML, like Gecko) Chrome/111.0.0.0 Safari/537.36" etag="5iXgMa8jeEvk15UNJrSQ" version="21.1.8" type="device">
  <diagram id="C5RBs43oDa-KdzZeNtuy" name="Page-1">
    <mxGraphModel dx="794" dy="448" grid="1" gridSize="10" guides="1" tooltips="1" connect="1" arrows="1" fold="1" page="1" pageScale="1" pageWidth="827" pageHeight="1169" math="0" shadow="0">
      <root>
        <mxCell id="WIyWlLk6GJQsqaUBKTNV-0" />
        <mxCell id="WIyWlLk6GJQsqaUBKTNV-1" parent="WIyWlLk6GJQsqaUBKTNV-0" />
        <mxCell id="WIyWlLk6GJQsqaUBKTNV-2" value="" style="rounded=0;html=1;jettySize=auto;orthogonalLoop=1;fontSize=11;endArrow=block;endFill=0;endSize=8;strokeWidth=1;shadow=0;labelBackgroundColor=none;edgeStyle=orthogonalEdgeStyle;" parent="WIyWlLk6GJQsqaUBKTNV-1" source="WIyWlLk6GJQsqaUBKTNV-3" edge="1">
          <mxGeometry relative="1" as="geometry">
            <mxPoint x="100" y="170" as="targetPoint" />
          </mxGeometry>
        </mxCell>
        <mxCell id="WIyWlLk6GJQsqaUBKTNV-3" value="WHiX Data Processing" style="rounded=1;whiteSpace=wrap;html=1;fontSize=7;glass=0;strokeWidth=1;shadow=0;fillColor=#f8cecc;strokeColor=#b85450;" parent="WIyWlLk6GJQsqaUBKTNV-1" vertex="1">
          <mxGeometry x="40" y="80" width="120" height="40" as="geometry" />
        </mxCell>
        <mxCell id="JlViz4wOhdhszTuP-DQE-0" value="WHiX CUJO AI" style="rounded=1;whiteSpace=wrap;html=1;fontSize=7;glass=0;strokeWidth=1;shadow=0;fillColor=#f8cecc;strokeColor=#b85450;" vertex="1" parent="WIyWlLk6GJQsqaUBKTNV-1">
          <mxGeometry x="220" y="80" width="120" height="40" as="geometry" />
        </mxCell>
        <mxCell id="JlViz4wOhdhszTuP-DQE-2" value="&lt;font style=&quot;font-size: 7px;&quot;&gt;Device Flattening&lt;br style=&quot;border-color: var(--border-color);&quot;&gt;For 2G, 5G and 6G&lt;br style=&quot;border-color: var(--border-color);&quot;&gt;Devices&lt;/font&gt;" style="shape=process;whiteSpace=wrap;html=1;backgroundOutline=1;" vertex="1" parent="WIyWlLk6GJQsqaUBKTNV-1">
          <mxGeometry x="40" y="170" width="120" height="60" as="geometry" />
        </mxCell>
        <mxCell id="JlViz4wOhdhszTuP-DQE-5" value="" style="endArrow=none;html=1;rounded=0;exitX=1;exitY=0.5;exitDx=0;exitDy=0;" edge="1" parent="WIyWlLk6GJQsqaUBKTNV-1" source="JlViz4wOhdhszTuP-DQE-2">
          <mxGeometry width="50" height="50" relative="1" as="geometry">
            <mxPoint x="380" y="230" as="sourcePoint" />
            <mxPoint x="200" y="200" as="targetPoint" />
          </mxGeometry>
        </mxCell>
        <mxCell id="JlViz4wOhdhszTuP-DQE-6" value="" style="endArrow=classic;html=1;rounded=0;" edge="1" parent="WIyWlLk6GJQsqaUBKTNV-1">
          <mxGeometry width="50" height="50" relative="1" as="geometry">
            <mxPoint x="200" y="200" as="sourcePoint" />
            <mxPoint x="201" y="250" as="targetPoint" />
          </mxGeometry>
        </mxCell>
        <mxCell id="JlViz4wOhdhszTuP-DQE-10" value="&lt;pre style=&quot;background-color: rgb(255, 255, 255); font-family: &amp;quot;Courier New&amp;quot;; font-size: 4.5pt;&quot;&gt;&lt;b style=&quot;&quot;&gt;&quot;device.accountSourceId&quot;,&lt;br&gt;&lt;/b&gt;&lt;div style=&quot;&quot;&gt;&lt;b&gt;&lt;span style=&quot;font-size: 4.5pt; white-space: normal;&quot;&gt;                                                                   &lt;/span&gt;&lt;span style=&quot;font-size: 4.5pt; white-space: normal;&quot;&gt;&quot;device.deviceSourceId&quot;&lt;/span&gt;&lt;span style=&quot;font-size: 4.5pt; white-space: normal;&quot;&gt;,&lt;/span&gt;&lt;/b&gt;&lt;/div&gt;&lt;div style=&quot;&quot;&gt;&lt;b&gt;&lt;span style=&quot;font-size: 4.5pt; white-space: normal;&quot;&gt;                                                                   &lt;/span&gt;&lt;span style=&quot;font-size: 4.5pt; white-space: normal;&quot;&gt;&quot;device.firmwareVersion&quot;&lt;/span&gt;&lt;span style=&quot;font-size: 4.5pt; white-space: normal;&quot;&gt;,&lt;/span&gt;&lt;/b&gt;&lt;/div&gt;&lt;div style=&quot;&quot;&gt;&lt;b&gt;&lt;span style=&quot;font-size: 4.5pt; white-space: normal;&quot;&gt;                                                                   &lt;/span&gt;&lt;span style=&quot;font-size: 4.5pt; white-space: normal;&quot;&gt;&quot;RAWATTRIBUTES.AccountId&quot;&lt;/span&gt;&lt;span style=&quot;font-size: 4.5pt; white-space: normal;&quot;&gt;,&lt;/span&gt;&lt;/b&gt;&lt;/div&gt;&lt;div style=&quot;&quot;&gt;&lt;b&gt;&lt;span style=&quot;font-size: 4.5pt; white-space: normal;&quot;&gt;                                                                   &lt;/span&gt;&lt;span style=&quot;font-size: 4.5pt; white-space: normal;&quot;&gt;&quot;device.make&quot;&lt;/span&gt;&lt;span style=&quot;font-size: 4.5pt; white-space: normal;&quot;&gt;,&lt;/span&gt;&lt;/b&gt;&lt;/div&gt;&lt;div style=&quot;&quot;&gt;&lt;b&gt;&lt;span style=&quot;font-size: 4.5pt; white-space: normal;&quot;&gt;                                                                   &lt;/span&gt;&lt;span style=&quot;font-size: 4.5pt; white-space: normal;&quot;&gt;&quot;RAWATTRIBUTES.Wifi_5G_utilization_split&quot;&lt;/span&gt;&lt;span style=&quot;font-size: 4.5pt; white-space: normal;&quot;&gt;,&lt;/span&gt;&lt;/b&gt;&lt;/div&gt;&lt;div style=&quot;&quot;&gt;&lt;b&gt;&lt;span style=&quot;font-size: 4.5pt; white-space: normal;&quot;&gt;&quot;RAWATTRIBUTES.2GPodMac_split&quot;,&lt;/span&gt;&lt;/b&gt;&lt;/div&gt;&lt;div style=&quot;&quot;&gt;&lt;b&gt;&lt;span style=&quot;font-size: 4.5pt; white-space: normal;&quot;&gt;&quot;RAWATTRIBUTES.2GPoDRSSI_split&quot;,&lt;/span&gt;&lt;/b&gt;&lt;/div&gt;&lt;div style=&quot;&quot;&gt;&lt;b&gt;&lt;span style=&quot;font-size: 4.5pt; white-space: normal;&quot;&gt;&quot;RAWATTRIBUTES.5GPodMac_split&quot;,&lt;/span&gt;&lt;/b&gt;&lt;/div&gt;&lt;div style=&quot;&quot;&gt;&lt;b&gt;&lt;span style=&quot;font-size: 4.5pt; white-space: normal;&quot;&gt;&quot;RAWATTRIBUTES.5GPodRSSI_split&quot;,&lt;/span&gt;&lt;/b&gt;&lt;/div&gt;&lt;div style=&quot;&quot;&gt;&lt;b&gt;&lt;span style=&quot;font-size: 4.5pt; white-space: normal;&quot;&gt;                                                                   &lt;/span&gt;&lt;span style=&quot;font-size: 4.5pt; white-space: normal;&quot;&gt;&quot;RAWATTRIBUTES.Total_2G_clients_split&quot;&lt;/span&gt;&lt;span style=&quot;font-size: 4.5pt; white-space: normal;&quot;&gt;,&lt;/span&gt;&lt;/b&gt;&lt;/div&gt;&lt;div style=&quot;&quot;&gt;&lt;b&gt;&lt;span style=&quot;font-size: 4.5pt; white-space: normal;&quot;&gt;                                                                   &lt;/span&gt;&lt;span style=&quot;font-size: 4.5pt; white-space: normal;&quot;&gt;&quot;RAWATTRIBUTES.5GclientMac_split&quot;&lt;/span&gt;&lt;span style=&quot;font-size: 4.5pt; white-space: normal;&quot;&gt;,&lt;/span&gt;&lt;/b&gt;&lt;/div&gt;&lt;div style=&quot;&quot;&gt;&lt;b&gt;&lt;span style=&quot;font-size: 4.5pt; white-space: normal;&quot;&gt;                                                                   &lt;/span&gt;&lt;span style=&quot;font-size: 4.5pt; white-space: normal;&quot;&gt;&quot;RAWATTRIBUTES.MAXRX_2_split&quot;&lt;/span&gt;&lt;span style=&quot;font-size: 4.5pt; white-space: normal;&quot;&gt;,&lt;/span&gt;&lt;/b&gt;&lt;/div&gt;&lt;div style=&quot;&quot;&gt;&lt;b&gt;&lt;span style=&quot;font-size: 4.5pt; white-space: normal;&quot;&gt;                                                                   &lt;/span&gt;&lt;span style=&quot;font-size: 4.5pt; white-space: normal;&quot;&gt;&quot;RAWATTRIBUTES.WIFI_RX_2_split&quot;&lt;/span&gt;&lt;span style=&quot;font-size: 4.5pt; white-space: normal;&quot;&gt;,&lt;/span&gt;&lt;/b&gt;&lt;/div&gt;&lt;div style=&quot;&quot;&gt;&lt;b&gt;&lt;span style=&quot;font-size: 4.5pt; white-space: normal;&quot;&gt;                                                                   &lt;/span&gt;&lt;span style=&quot;font-size: 4.5pt; white-space: normal;&quot;&gt;&quot;RAWATTRIBUTES.WIFI_TX_2_split&quot;&lt;/span&gt;&lt;span style=&quot;font-size: 4.5pt; white-space: normal;&quot;&gt;,&lt;/span&gt;&lt;/b&gt;&lt;/div&gt;&lt;div style=&quot;&quot;&gt;&lt;b&gt;&lt;span style=&quot;font-size: 4.5pt; white-space: normal;&quot;&gt;                                                                   &lt;/span&gt;&lt;span style=&quot;font-size: 4.5pt; white-space: normal;&quot;&gt;&quot;RAWATTRIBUTES.Total_5G_clients_split&quot;&lt;/span&gt;&lt;span style=&quot;font-size: 4.5pt; white-space: normal;&quot;&gt;,&lt;/span&gt;&lt;/b&gt;&lt;/div&gt;&lt;div style=&quot;&quot;&gt;&lt;b&gt;&lt;span style=&quot;font-size: 4.5pt; white-space: normal;&quot;&gt;                                                                   &lt;/span&gt;&lt;span style=&quot;font-size: 4.5pt; white-space: normal;&quot;&gt;&quot;RAWATTRIBUTES.Total_6G_clients_split&quot;&lt;/span&gt;&lt;span style=&quot;font-size: 4.5pt; white-space: normal;&quot;&gt;,&lt;/span&gt;&lt;/b&gt;&lt;/div&gt;&lt;div style=&quot;&quot;&gt;&lt;b&gt;&lt;span style=&quot;font-size: 4.5pt; white-space: normal;&quot;&gt;                                                                   &lt;/span&gt;&lt;span style=&quot;font-size: 4.5pt; white-space: normal;&quot;&gt;&quot;RAWATTRIBUTES.MAXTX_2_split&quot;&lt;/span&gt;&lt;span style=&quot;font-size: 4.5pt; white-space: normal;&quot;&gt;,&lt;/span&gt;&lt;/b&gt;&lt;/div&gt;&lt;div style=&quot;&quot;&gt;&lt;b&gt;&lt;span style=&quot;font-size: 4.5pt; white-space: normal;&quot;&gt;                                                                   &lt;/span&gt;&lt;span style=&quot;font-size: 4.5pt; white-space: normal;&quot;&gt;&quot;RAWATTRIBUTES.WIFIRetransCount2_split&quot;&lt;/span&gt;&lt;span style=&quot;font-size: 4.5pt; white-space: normal;&quot;&gt;,&lt;/span&gt;&lt;/b&gt;&lt;/div&gt;&lt;div style=&quot;&quot;&gt;&lt;b&gt;&lt;span style=&quot;font-size: 4.5pt; white-space: normal;&quot;&gt;                                                                   &lt;/span&gt;&lt;span style=&quot;font-size: 4.5pt; white-space: normal;&quot;&gt;&quot;RAWATTRIBUTES.WIFI_ERRORSSENT_2_split&quot;&lt;/span&gt;&lt;span style=&quot;font-size: 4.5pt; white-space: normal;&quot;&gt;,&lt;/span&gt;&lt;/b&gt;&lt;/div&gt;&lt;div style=&quot;&quot;&gt;&lt;b&gt;&lt;span style=&quot;font-size: 4.5pt; white-space: normal;&quot;&gt;                                                                   &lt;/span&gt;&lt;span style=&quot;font-size: 4.5pt; white-space: normal;&quot;&gt;&quot;RAWATTRIBUTES.WIFI_SNR_2_split&quot;&lt;/span&gt;&lt;span style=&quot;font-size: 4.5pt; white-space: normal;&quot;&gt;,&lt;/span&gt;&lt;/b&gt;&lt;/div&gt;&lt;div style=&quot;&quot;&gt;&lt;b&gt;&lt;span style=&quot;font-size: 4.5pt; white-space: normal;&quot;&gt;                                                                   &lt;/span&gt;&lt;span style=&quot;font-size: 4.5pt; white-space: normal;&quot;&gt;&quot;RAWATTRIBUTES.WIFI_PACKETSSENTCLIENTS_2_split&quot;&lt;/span&gt;&lt;span style=&quot;font-size: 4.5pt; white-space: normal;&quot;&gt;,&lt;/span&gt;&lt;/b&gt;&lt;/div&gt;&lt;div style=&quot;&quot;&gt;&lt;b&gt;&lt;span style=&quot;font-size: 4.5pt; white-space: normal;&quot;&gt;                                                                   &lt;/span&gt;&lt;span style=&quot;font-size: 4.5pt; white-space: normal;&quot;&gt;&quot;RAWATTRIBUTES.NF_2_split&quot;&lt;/span&gt;&lt;span style=&quot;font-size: 4.5pt; white-space: normal;&quot;&gt;,&lt;/span&gt;&lt;/b&gt;&lt;/div&gt;&lt;div style=&quot;&quot;&gt;&lt;b&gt;&lt;span style=&quot;font-size: 4.5pt; white-space: normal;&quot;&gt;                                                                   &lt;/span&gt;&lt;span style=&quot;font-size: 4.5pt; white-space: normal;&quot;&gt;&quot;RAWATTRIBUTES.5GRSSI_split&quot;&lt;/span&gt;&lt;span style=&quot;font-size: 4.5pt; white-space: normal;&quot;&gt;,&lt;/span&gt;&lt;/b&gt;&lt;/div&gt;&lt;div style=&quot;&quot;&gt;&lt;b&gt;&lt;span style=&quot;font-size: 4.5pt; white-space: normal;&quot;&gt;                                                                   &lt;/span&gt;&lt;span style=&quot;font-size: 4.5pt; white-space: normal;&quot;&gt;&quot;RAWATTRIBUTES.WIFI_CW_2_split&quot;&lt;/span&gt;&lt;span style=&quot;font-size: 4.5pt; white-space: normal;&quot;&gt;,&lt;/span&gt;&lt;/b&gt;&lt;/div&gt;&lt;div style=&quot;&quot;&gt;&lt;b&gt;&lt;span style=&quot;font-size: 4.5pt; white-space: normal;&quot;&gt;                                                                   &lt;/span&gt;&lt;span style=&quot;font-size: 4.5pt; white-space: normal;&quot;&gt;&quot;RAWATTRIBUTES.rdkb_rebootreason_split&quot;&lt;/span&gt;&lt;span style=&quot;font-size: 4.5pt; white-space: normal;&quot;&gt;,&lt;/span&gt;&lt;/b&gt;&lt;/div&gt;&lt;div style=&quot;&quot;&gt;&lt;b&gt;&lt;span style=&quot;font-size: 4.5pt; white-space: normal;&quot;&gt;                                                                   &lt;/span&gt;&lt;span style=&quot;font-size: 4.5pt; white-space: normal;&quot;&gt;&quot;RAWATTRIBUTES.thermal_fanspeed_split&quot;&lt;/span&gt;&lt;span style=&quot;font-size: 4.5pt; white-space: normal;&quot;&gt;,&lt;/span&gt;&lt;/b&gt;&lt;/div&gt;&lt;div style=&quot;&quot;&gt;&lt;b&gt;&lt;span style=&quot;font-size: 4.5pt; white-space: normal;&quot;&gt;                                                                   &lt;/span&gt;&lt;span style=&quot;font-size: 4.5pt; white-space: normal;&quot;&gt;&quot;RAWATTRIBUTES.thermal_ChipTemp_split&quot;&lt;/span&gt;&lt;span style=&quot;font-size: 4.5pt; white-space: normal;&quot;&gt;,&lt;/span&gt;&lt;/b&gt;&lt;/div&gt;&lt;div style=&quot;&quot;&gt;&lt;b&gt;&lt;span style=&quot;font-size: 4.5pt; white-space: normal;&quot;&gt;                                                                   &lt;/span&gt;&lt;span style=&quot;font-size: 4.5pt; white-space: normal;&quot;&gt;&quot;RAWATTRIBUTES.WIFI_ERROR_Diag3DataCorrupt&quot;&lt;/span&gt;&lt;span style=&quot;font-size: 4.5pt; white-space: normal;&quot;&gt;,&lt;/span&gt;&lt;/b&gt;&lt;/div&gt;&lt;div style=&quot;&quot;&gt;&lt;b&gt;&lt;span style=&quot;font-size: 4.5pt; white-space: normal;&quot;&gt;                                                                   &lt;/span&gt;&lt;span style=&quot;font-size: 4.5pt; white-space: normal;&quot;&gt;&quot;RAWATTRIBUTES.mem_syseventd&quot;&lt;/span&gt;&lt;span style=&quot;font-size: 4.5pt; white-space: normal;&quot;&gt;,&lt;/span&gt;&lt;/b&gt;&lt;/div&gt;&lt;div style=&quot;&quot;&gt;&lt;b&gt;&lt;span style=&quot;font-size: 4.5pt; white-space: normal;&quot;&gt;                                                                   &lt;/span&gt;&lt;span style=&quot;font-size: 4.5pt; white-space: normal;&quot;&gt;&quot;RAWATTRIBUTES.CMTSMAC_split&quot;&lt;/span&gt;&lt;span style=&quot;font-size: 4.5pt; white-space: normal;&quot;&gt;,&lt;/span&gt;&lt;/b&gt;&lt;/div&gt;&lt;div style=&quot;&quot;&gt;&lt;b&gt;&lt;span style=&quot;font-size: 4.5pt; white-space: normal;&quot;&gt;                                                                   &lt;/span&gt;&lt;span style=&quot;font-size: 4.5pt; white-space: normal;&quot;&gt;&quot;RAWATTRIBUTES.5GPODSSID_split&quot;&lt;/span&gt;&lt;span style=&quot;font-size: 4.5pt; white-space: normal;&quot;&gt;,&lt;/span&gt;&lt;/b&gt;&lt;/div&gt;&lt;div style=&quot;&quot;&gt;&lt;b&gt;&lt;span style=&quot;font-size: 4.5pt; white-space: normal;&quot;&gt;                                                                   &lt;/span&gt;&lt;span style=&quot;font-size: 4.5pt; white-space: normal;&quot;&gt;&quot;RAWATTRIBUTES.UPTIME_split&quot;&lt;/span&gt;&lt;span style=&quot;font-size: 4.5pt; white-space: normal;&quot;&gt;,&lt;/span&gt;&lt;/b&gt;&lt;/div&gt;&lt;div style=&quot;&quot;&gt;&lt;b&gt;&lt;span style=&quot;font-size: 4.5pt; white-space: normal;&quot;&gt;                                                                   &lt;/span&gt;&lt;span style=&quot;font-size: 4.5pt; white-space: normal;&quot;&gt;&quot;RAWATTRIBUTES.2GPODSSID_split&quot;&lt;/span&gt;&lt;span style=&quot;font-size: 4.5pt; white-space: normal;&quot;&gt;,&lt;/span&gt;&lt;/b&gt;&lt;/div&gt;&lt;div style=&quot;&quot;&gt;&lt;b&gt;&lt;span style=&quot;font-size: 4.5pt; white-space: normal;&quot;&gt;                                                                   &lt;/span&gt;&lt;span style=&quot;font-size: 4.5pt; white-space: normal;&quot;&gt;&quot;RAWATTRIBUTES.WIFI_INFO_clientdisconnect&quot;&lt;/span&gt;&lt;span style=&quot;font-size: 4.5pt; white-space: normal;&quot;&gt;,&lt;/span&gt;&lt;/b&gt;&lt;/div&gt;&lt;div style=&quot;&quot;&gt;&lt;b&gt;&lt;span style=&quot;font-size: 4.5pt; white-space: normal;&quot;&gt;                                                                   &lt;/span&gt;&lt;span style=&quot;font-size: 4.5pt; white-space: normal;&quot;&gt;&quot;RAWATTRIBUTES.LoadAvg_split&quot;&lt;/span&gt;&lt;span style=&quot;font-size: 4.5pt; white-space: normal;&quot;&gt;,&lt;/span&gt;&lt;/b&gt;&lt;/div&gt;&lt;div style=&quot;&quot;&gt;&lt;b&gt;&lt;span style=&quot;font-size: 4.5pt; white-space: normal;&quot;&gt;                                                                   &lt;/span&gt;&lt;span style=&quot;font-size: 4.5pt; white-space: normal;&quot;&gt;&quot;RAWATTRIBUTES.UPDays_split&quot;&lt;/span&gt;&lt;span style=&quot;font-size: 4.5pt; white-space: normal;&quot;&gt;,&lt;/span&gt;&lt;/b&gt;&lt;/div&gt;&lt;div style=&quot;&quot;&gt;&lt;b&gt;&lt;span style=&quot;font-size: 4.5pt; white-space: normal;&quot;&gt;                                                                   &lt;/span&gt;&lt;span style=&quot;font-size: 4.5pt; white-space: normal;&quot;&gt;&quot;DEVICE.postalCode&quot;&lt;/span&gt;&lt;span style=&quot;font-size: 4.5pt; white-space: normal;&quot;&gt;,&lt;/span&gt;&lt;/b&gt;&lt;/div&gt;&lt;div style=&quot;&quot;&gt;&lt;b&gt;&lt;span style=&quot;font-size: 4.5pt; white-space: normal;&quot;&gt;                                                                   &lt;/span&gt;&lt;span style=&quot;font-size: 4.5pt; white-space: normal;&quot;&gt;&quot;DEVICE.model&quot;&lt;/span&gt;&lt;span style=&quot;font-size: 4.5pt; white-space: normal;&quot;&gt;,&lt;/span&gt;&lt;/b&gt;&lt;/div&gt;&lt;div style=&quot;&quot;&gt;&lt;b style=&quot;&quot;&gt;&lt;span style=&quot;font-size: 4.5pt; white-space: normal;&quot;&gt;                                                                   &lt;/span&gt;&lt;span style=&quot;font-size: 4.5pt; white-space: normal;&quot;&gt;&quot;received_hour&quot;&lt;/span&gt;&lt;/b&gt;&lt;/div&gt;&lt;/pre&gt;" style="text;whiteSpace=wrap;html=1;align=left;labelBorderColor=default;" vertex="1" parent="WIyWlLk6GJQsqaUBKTNV-1">
          <mxGeometry x="111" y="240" width="179" height="290" as="geometry" />
        </mxCell>
        <mxCell id="JlViz4wOhdhszTuP-DQE-13" value="&lt;pre style=&quot;background-color: rgb(255, 255, 255); font-family: &amp;quot;Courier New&amp;quot;; font-size: 4.5pt;&quot;&gt;&lt;div style=&quot;text-align: justify;&quot;&gt;&lt;span style=&quot;font-size: 4.5pt; white-space: normal; font-weight: bold;&quot;&gt;&quot;device.accountSourceId&quot;&lt;/span&gt;&lt;span style=&quot;font-size: 4.5pt; white-space: normal;&quot;&gt;,&lt;/span&gt;&lt;/div&gt;&lt;div style=&quot;text-align: justify;&quot;&gt;&lt;span style=&quot;font-size: 4.5pt; white-space: normal;&quot;&gt;                                                        &lt;/span&gt;&lt;span style=&quot;font-size: 4.5pt; white-space: normal; font-weight: bold;&quot;&gt;&quot;device.deviceSourceId&quot;&lt;/span&gt;&lt;span style=&quot;font-size: 4.5pt; white-space: normal;&quot;&gt;,&lt;/span&gt;&lt;/div&gt;&lt;div style=&quot;text-align: justify;&quot;&gt;&lt;span style=&quot;font-size: 4.5pt; white-space: normal;&quot;&gt;                                                        &lt;/span&gt;&lt;span style=&quot;font-size: 4.5pt; white-space: normal; font-weight: bold;&quot;&gt;&quot;deviceData.mac&quot;&lt;/span&gt;&lt;span style=&quot;font-size: 4.5pt; white-space: normal;&quot;&gt;,&lt;/span&gt;&lt;/div&gt;&lt;div style=&quot;text-align: justify;&quot;&gt;&lt;span style=&quot;font-size: 4.5pt; white-space: normal;&quot;&gt;                                                        &lt;/span&gt;&lt;span style=&quot;font-size: 4.5pt; white-space: normal; font-weight: bold;&quot;&gt;&quot;deviceData.deviceType&quot;&lt;/span&gt;&lt;span style=&quot;font-size: 4.5pt; white-space: normal;&quot;&gt;,&lt;/span&gt;&lt;/div&gt;&lt;div style=&quot;text-align: justify;&quot;&gt;&lt;span style=&quot;font-size: 4.5pt; white-space: normal;&quot;&gt;                                                        &lt;/span&gt;&lt;span style=&quot;font-size: 4.5pt; white-space: normal; font-weight: bold;&quot;&gt;&quot;deviceData.deviceModel&quot;&lt;/span&gt;&lt;span style=&quot;font-size: 4.5pt; white-space: normal;&quot;&gt;,&lt;/span&gt;&lt;/div&gt;&lt;div style=&quot;text-align: justify;&quot;&gt;&lt;span style=&quot;font-size: 4.5pt; white-space: normal;&quot;&gt;                                                        &lt;/span&gt;&lt;span style=&quot;font-size: 4.5pt; white-space: normal; font-weight: bold;&quot;&gt;&quot;deviceData.interfaceName&quot;&lt;/span&gt;&lt;span style=&quot;font-size: 4.5pt; white-space: normal;&quot;&gt;,&lt;/span&gt;&lt;/div&gt;&lt;div style=&quot;text-align: justify;&quot;&gt;&lt;span style=&quot;font-size: 4.5pt; white-space: normal;&quot;&gt;                                                        &lt;/span&gt;&lt;span style=&quot;font-size: 4.5pt; white-space: normal; font-weight: bold;&quot;&gt;&quot;deviceData.streamingDevice&quot;&lt;/span&gt;&lt;span style=&quot;font-size: 4.5pt; white-space: normal;&quot;&gt;,&lt;/span&gt;&lt;/div&gt;&lt;div style=&quot;text-align: justify;&quot;&gt;&lt;span style=&quot;font-size: 4.5pt; white-space: normal;&quot;&gt;                                                        &lt;/span&gt;&lt;span style=&quot;font-size: 4.5pt; white-space: normal; font-weight: bold;&quot;&gt;&quot;deviceData.brand&quot;&lt;/span&gt;&lt;span style=&quot;font-size: 4.5pt; white-space: normal;&quot;&gt;,&lt;/span&gt;&lt;/div&gt;&lt;div style=&quot;text-align: justify;&quot;&gt;&lt;span style=&quot;font-size: 4.5pt; white-space: normal;&quot;&gt;                                                        &lt;/span&gt;&lt;span style=&quot;font-size: 4.5pt; white-space: normal; font-weight: bold;&quot;&gt;&quot;received_date&quot;&lt;/span&gt;&lt;/div&gt;&lt;/pre&gt;" style="text;whiteSpace=wrap;html=1;align=left;labelBorderColor=default;" vertex="1" parent="WIyWlLk6GJQsqaUBKTNV-1">
          <mxGeometry x="360" y="250" width="110" height="90" as="geometry" />
        </mxCell>
        <mxCell id="JlViz4wOhdhszTuP-DQE-15" value="&lt;span style=&quot;font-size: 7px;&quot;&gt;Device Identification&lt;br&gt;&lt;/span&gt;" style="shape=process;whiteSpace=wrap;html=1;backgroundOutline=1;" vertex="1" parent="WIyWlLk6GJQsqaUBKTNV-1">
          <mxGeometry x="220" y="170" width="120" height="60" as="geometry" />
        </mxCell>
        <mxCell id="JlViz4wOhdhszTuP-DQE-16" value="" style="endArrow=none;html=1;rounded=0;" edge="1" parent="WIyWlLk6GJQsqaUBKTNV-1">
          <mxGeometry width="50" height="50" relative="1" as="geometry">
            <mxPoint x="380" y="210" as="sourcePoint" />
            <mxPoint x="380" y="210" as="targetPoint" />
            <Array as="points">
              <mxPoint x="340" y="210" />
            </Array>
          </mxGeometry>
        </mxCell>
        <mxCell id="JlViz4wOhdhszTuP-DQE-17" value="" style="endArrow=classic;html=1;rounded=0;entryX=0.177;entryY=-0.017;entryDx=0;entryDy=0;entryPerimeter=0;" edge="1" parent="WIyWlLk6GJQsqaUBKTNV-1" target="JlViz4wOhdhszTuP-DQE-13">
          <mxGeometry width="50" height="50" relative="1" as="geometry">
            <mxPoint x="380" y="210" as="sourcePoint" />
            <mxPoint x="211" y="260" as="targetPoint" />
          </mxGeometry>
        </mxCell>
        <mxCell id="JlViz4wOhdhszTuP-DQE-18" value="" style="rounded=0;html=1;jettySize=auto;orthogonalLoop=1;fontSize=11;endArrow=block;endFill=0;endSize=8;strokeWidth=1;shadow=0;labelBackgroundColor=none;edgeStyle=orthogonalEdgeStyle;exitX=0.5;exitY=1;exitDx=0;exitDy=0;entryX=0.5;entryY=0;entryDx=0;entryDy=0;" edge="1" parent="WIyWlLk6GJQsqaUBKTNV-1" source="JlViz4wOhdhszTuP-DQE-0" target="JlViz4wOhdhszTuP-DQE-15">
          <mxGeometry relative="1" as="geometry">
            <mxPoint x="110" y="130" as="sourcePoint" />
            <mxPoint x="110" y="180" as="targetPoint" />
          </mxGeometry>
        </mxCell>
        <mxCell id="JlViz4wOhdhszTuP-DQE-19" value="WHiX Data Unification" style="rounded=1;whiteSpace=wrap;html=1;fontSize=7;glass=0;strokeWidth=1;shadow=0;fillColor=#d5e8d4;strokeColor=#82b366;" vertex="1" parent="WIyWlLk6GJQsqaUBKTNV-1">
          <mxGeometry x="407" y="82" width="120" height="40" as="geometry" />
        </mxCell>
        <mxCell id="JlViz4wOhdhszTuP-DQE-20" value="" style="rounded=0;html=1;jettySize=auto;orthogonalLoop=1;fontSize=11;endArrow=block;endFill=0;endSize=8;strokeWidth=1;shadow=0;labelBackgroundColor=none;edgeStyle=orthogonalEdgeStyle;exitX=0.5;exitY=1;exitDx=0;exitDy=0;" edge="1" parent="WIyWlLk6GJQsqaUBKTNV-1" source="JlViz4wOhdhszTuP-DQE-19">
          <mxGeometry relative="1" as="geometry">
            <mxPoint x="217" y="132" as="sourcePoint" />
            <mxPoint x="467" y="172" as="targetPoint" />
          </mxGeometry>
        </mxCell>
        <mxCell id="JlViz4wOhdhszTuP-DQE-21" value="&lt;span style=&quot;font-size: 7px;&quot;&gt;Device&amp;nbsp; Unification&lt;br&gt;&lt;/span&gt;" style="shape=process;whiteSpace=wrap;html=1;backgroundOutline=1;" vertex="1" parent="WIyWlLk6GJQsqaUBKTNV-1">
          <mxGeometry x="407" y="172" width="120" height="60" as="geometry" />
        </mxCell>
        <mxCell id="JlViz4wOhdhszTuP-DQE-22" value="&lt;pre style=&quot;background-color: rgb(255, 255, 255); font-family: &amp;quot;Courier New&amp;quot;; font-size: 4.5pt;&quot;&gt;&lt;span style=&quot;font-weight: bold;&quot;&gt;&quot;accountSourceId&quot;&lt;/span&gt;,&lt;br&gt;&lt;span style=&quot;font-weight: bold;&quot;&gt;&quot;deviceSourceId&quot;&lt;/span&gt;,&lt;br&gt;&lt;span style=&quot;font-weight: bold;&quot;&gt;&quot;AccountId&quot;&lt;/span&gt;,&lt;br&gt;&lt;span style=&quot;font-weight: bold;&quot;&gt;&quot;GW_MODEL&quot;&lt;/span&gt;,&lt;br&gt;&lt;span style=&quot;font-weight: bold;&quot;&gt;&quot;make&quot;&lt;/span&gt;,&lt;br&gt;&lt;span style=&quot;font-weight: bold;&quot;&gt;&quot;postalCode&quot;&lt;/span&gt;,&lt;br&gt;&lt;span style=&quot;font-weight: bold;&quot;&gt;&quot;model&quot;&lt;/span&gt;,&lt;br&gt;&lt;span style=&quot;font-weight: bold;&quot;&gt;&quot;clientMac&quot;&lt;/span&gt;,&lt;br&gt;&lt;span style=&quot;font-weight: bold;&quot;&gt;&quot;received_hour&quot;&lt;/span&gt;,&lt;br&gt;&lt;span style=&quot;font-weight: bold;&quot;&gt;&quot;rssi&quot;&lt;/span&gt;,&lt;br&gt;&lt;span style=&quot;font-weight: bold;&quot;&gt;&quot;channel_width&quot;&lt;/span&gt;,&lt;br&gt;&lt;span style=&quot;font-weight: bold;&quot;&gt;&quot;noise&quot;&lt;/span&gt;,&lt;br&gt;&lt;span style=&quot;font-weight: bold;&quot;&gt;&quot;packets_sent&quot;&lt;/span&gt;,&lt;br&gt;&lt;span style=&quot;font-weight: bold;&quot;&gt;&quot;snr&quot;&lt;/span&gt;,&lt;br&gt;&lt;span style=&quot;font-weight: bold;&quot;&gt;&quot;maxtx&quot;&lt;/span&gt;,&lt;br&gt;&lt;span style=&quot;font-weight: bold;&quot;&gt;&quot;maxrx&quot;&lt;/span&gt;,&lt;br&gt;&lt;span style=&quot;font-weight: bold;&quot;&gt;&quot;tx&quot;&lt;/span&gt;,&lt;br&gt;&lt;span style=&quot;font-weight: bold;&quot;&gt;&quot;rx&quot;&lt;/span&gt;,&lt;br&gt;&lt;span style=&quot;font-weight: bold;&quot;&gt;&quot;errorsent&quot;&lt;/span&gt;,&lt;br&gt;&lt;span style=&quot;font-weight: bold;&quot;&gt;&quot;rapid_reconnects_count&quot;&lt;/span&gt;,&lt;br&gt;&lt;span style=&quot;font-weight: bold;&quot;&gt;&quot;retransmissions&quot;&lt;/span&gt;,&lt;br&gt;&lt;span style=&quot;font-weight: bold;&quot;&gt;&quot;eventcode&quot;&lt;/span&gt;,&lt;br&gt;&lt;span style=&quot;font-weight: bold;&quot;&gt;&quot;eventCount&quot;&lt;/span&gt;,&lt;br&gt;&lt;span style=&quot;font-weight: bold;&quot;&gt;&quot;channel_utilization&quot;&lt;/span&gt;,&lt;br&gt;&lt;span style=&quot;font-weight: bold;&quot;&gt;&quot;tag&quot;&lt;/span&gt;,&lt;br&gt;&lt;span style=&quot;font-weight: bold;&quot;&gt;&quot;diag3datacorrupt_error&quot;&lt;/span&gt;,&lt;br&gt;&lt;span style=&quot;font-weight: bold;&quot;&gt;&quot;loadavg_split&quot;&lt;/span&gt;,&lt;br&gt;&lt;span style=&quot;font-weight: bold;&quot;&gt;&quot;reboot&quot;&lt;/span&gt;,&lt;br&gt;&lt;span style=&quot;font-weight: bold;&quot;&gt;&quot;thermal_chiptemp_split&quot;&lt;/span&gt;,&lt;br&gt;&lt;span style=&quot;font-weight: bold;&quot;&gt;&quot;thermal_fanspeed_split&quot;&lt;/span&gt;,&lt;br&gt;&lt;span style=&quot;font-weight: bold;&quot;&gt;&quot;uptime_split&quot;&lt;/span&gt;,&lt;br&gt;&lt;span style=&quot;font-weight: bold;&quot;&gt;&quot;wifi_info_clientdisconnect&quot;&lt;/span&gt;,&lt;br&gt;&lt;span style=&quot;font-weight: bold;&quot;&gt;&quot;total_clients&quot;&lt;/span&gt;,&lt;br&gt;&lt;span style=&quot;font-weight: bold;&quot;&gt;&quot;client_type&quot;&lt;/span&gt;,&lt;br&gt;&lt;span style=&quot;font-weight: bold;&quot;&gt;&quot;deviceType&quot;&lt;/span&gt;,&lt;br&gt;&lt;span style=&quot;font-weight: bold;&quot;&gt;&quot;deviceModel&quot;&lt;/span&gt;,&lt;br&gt;&lt;span style=&quot;font-weight: bold;&quot;&gt;&quot;streamingDevice&quot;&lt;/span&gt;,&lt;br&gt;&lt;span style=&quot;font-weight: bold;&quot;&gt;&quot;brand&quot;&lt;/span&gt;&lt;/pre&gt;" style="text;whiteSpace=wrap;html=1;align=left;fontColor=#000000;labelBorderColor=default;" vertex="1" parent="WIyWlLk6GJQsqaUBKTNV-1">
          <mxGeometry x="527" y="250" width="113" height="310" as="geometry" />
        </mxCell>
        <mxCell id="JlViz4wOhdhszTuP-DQE-23" value="" style="endArrow=none;html=1;rounded=0;" edge="1" parent="WIyWlLk6GJQsqaUBKTNV-1">
          <mxGeometry width="50" height="50" relative="1" as="geometry">
            <mxPoint x="568" y="213" as="sourcePoint" />
            <mxPoint x="568" y="213" as="targetPoint" />
            <Array as="points">
              <mxPoint x="528" y="213" />
            </Array>
          </mxGeometry>
        </mxCell>
        <mxCell id="JlViz4wOhdhszTuP-DQE-24" value="" style="endArrow=classic;html=1;rounded=0;entryX=0.125;entryY=0;entryDx=0;entryDy=0;entryPerimeter=0;" edge="1" parent="WIyWlLk6GJQsqaUBKTNV-1">
          <mxGeometry width="50" height="50" relative="1" as="geometry">
            <mxPoint x="567" y="213" as="sourcePoint" />
            <mxPoint x="567" y="253" as="targetPoint" />
          </mxGeometry>
        </mxCell>
        <mxCell id="JlViz4wOhdhszTuP-DQE-25" value="WHiX Calculation" style="rounded=1;whiteSpace=wrap;html=1;fontSize=7;glass=0;strokeWidth=1;shadow=0;fillColor=#d5e8d4;strokeColor=#82b366;" vertex="1" parent="WIyWlLk6GJQsqaUBKTNV-1">
          <mxGeometry x="567" y="80" width="120" height="40" as="geometry" />
        </mxCell>
        <mxCell id="JlViz4wOhdhszTuP-DQE-26" value="" style="endArrow=classic;html=1;rounded=0;" edge="1" parent="WIyWlLk6GJQsqaUBKTNV-1" source="JlViz4wOhdhszTuP-DQE-10">
          <mxGeometry width="50" height="50" relative="1" as="geometry">
            <mxPoint x="340" y="400" as="sourcePoint" />
            <mxPoint x="520" y="385" as="targetPoint" />
          </mxGeometry>
        </mxCell>
        <mxCell id="JlViz4wOhdhszTuP-DQE-27" value="" style="endArrow=classic;html=1;rounded=0;exitX=1;exitY=0.5;exitDx=0;exitDy=0;" edge="1" parent="WIyWlLk6GJQsqaUBKTNV-1" source="JlViz4wOhdhszTuP-DQE-13">
          <mxGeometry width="50" height="50" relative="1" as="geometry">
            <mxPoint x="380" y="250" as="sourcePoint" />
            <mxPoint x="520" y="295" as="targetPoint" />
          </mxGeometry>
        </mxCell>
        <mxCell id="JlViz4wOhdhszTuP-DQE-28" value="&lt;span style=&quot;font-size: 7px;&quot;&gt;HouseHold-Level and Device&lt;br&gt;Level Scoring&lt;br&gt;&lt;/span&gt;" style="shape=process;whiteSpace=wrap;html=1;backgroundOutline=1;" vertex="1" parent="WIyWlLk6GJQsqaUBKTNV-1">
          <mxGeometry x="590" y="171" width="120" height="60" as="geometry" />
        </mxCell>
        <mxCell id="JlViz4wOhdhszTuP-DQE-29" value="&lt;pre style=&quot;background-color: rgb(255, 255, 255); font-family: &amp;quot;Courier New&amp;quot;; font-size: 4.5pt;&quot;&gt;&lt;span style=&quot;font-weight: bold;&quot;&gt;&quot;accountSourceId&quot;&lt;/span&gt;,&lt;br&gt;&lt;span style=&quot;font-weight: bold;&quot;&gt;&quot;deviceSourceId&quot;&lt;/span&gt;,&lt;br&gt;&lt;span style=&quot;font-weight: bold;&quot;&gt;&quot;AccountId&quot;&lt;/span&gt;,&lt;br&gt;&lt;span style=&quot;font-weight: bold;&quot;&gt;&quot;GW_MODEL&quot;&lt;/span&gt;,&lt;br&gt;&lt;span style=&quot;font-weight: bold;&quot;&gt;&quot;make&quot;&lt;/span&gt;,&lt;br&gt;&lt;span style=&quot;font-weight: bold;&quot;&gt;&quot;postalCode&quot;&lt;/span&gt;,&lt;br&gt;&lt;span style=&quot;font-weight: bold;&quot;&gt;&quot;clientMac&quot;&lt;/span&gt;,&lt;br&gt;&lt;span style=&quot;font-weight: bold;&quot;&gt;&quot;rssi&quot;&lt;/span&gt;,&lt;br&gt;&lt;span style=&quot;font-weight: bold;&quot;&gt;&quot;channel_width&quot;&lt;/span&gt;,&lt;br&gt;&lt;span style=&quot;font-weight: bold;&quot;&gt;&quot;noise&quot;&lt;/span&gt;,&lt;br&gt;&lt;span style=&quot;font-weight: bold;&quot;&gt;&quot;usage&quot;&lt;/span&gt;,&lt;br&gt;&lt;span style=&quot;font-weight: bold;&quot;&gt;&quot;snr&quot;&lt;/span&gt;,&lt;br&gt;&lt;span style=&quot;font-weight: bold;&quot;&gt;&quot;maxtx&quot;&lt;/span&gt;,&lt;br&gt;&lt;span style=&quot;font-weight: bold;&quot;&gt;&quot;tx&quot;&lt;/span&gt;,&lt;br&gt;&lt;span style=&quot;font-weight: bold;&quot;&gt;&quot;maxrx&quot;&lt;/span&gt;,&lt;br&gt;&lt;span style=&quot;font-weight: bold;&quot;&gt;&quot;retransmissions&quot;&lt;/span&gt;,&lt;br&gt;&lt;span style=&quot;font-weight: bold;&quot;&gt;&quot;channel_utilization&quot;&lt;/span&gt;,&lt;br&gt;&lt;span style=&quot;font-weight: bold;&quot;&gt;&quot;tag&quot;&lt;/span&gt;,&lt;br&gt;&lt;span style=&quot;font-weight: bold;&quot;&gt;&quot;reboot&quot;&lt;/span&gt;,&lt;br&gt;&lt;span style=&quot;font-weight: bold;&quot;&gt;&quot;total_clients&quot;&lt;/span&gt;,&lt;br&gt;&lt;span style=&quot;font-weight: bold;&quot;&gt;&quot;client_type&quot;&lt;/span&gt;,&lt;br&gt;&lt;span style=&quot;font-weight: bold;&quot;&gt;&quot;deviceType&quot;&lt;/span&gt;,&lt;br&gt;&lt;span style=&quot;font-weight: bold;&quot;&gt;&quot;deviceModel&quot;&lt;/span&gt;,&lt;br&gt;&lt;span style=&quot;font-weight: bold;&quot;&gt;&quot;streamingDevice&quot;&lt;/span&gt;,&lt;br&gt;&lt;span style=&quot;font-weight: bold;&quot;&gt;&quot;brand&quot;&lt;/span&gt;,&lt;br&gt;&lt;span style=&quot;font-weight: bold;&quot;&gt;&quot;WIFI_HAPPINESS_INDEX&quot;&lt;/span&gt;,&lt;br&gt;&lt;span style=&quot;font-weight: bold;&quot;&gt;&quot;HOUSEHOLD_WHIX&quot;&lt;/span&gt;,&lt;br&gt;&lt;span style=&quot;font-weight: bold;&quot;&gt;&quot;received_hour&quot;&lt;/span&gt;)&lt;/pre&gt;" style="text;whiteSpace=wrap;html=1;fontColor=#000000;labelBorderColor=default;" vertex="1" parent="WIyWlLk6GJQsqaUBKTNV-1">
          <mxGeometry x="687" y="260" width="93" height="230" as="geometry" />
        </mxCell>
        <mxCell id="JlViz4wOhdhszTuP-DQE-30" value="" style="endArrow=none;html=1;rounded=0;" edge="1" parent="WIyWlLk6GJQsqaUBKTNV-1">
          <mxGeometry width="50" height="50" relative="1" as="geometry">
            <mxPoint x="750" y="200" as="sourcePoint" />
            <mxPoint x="740" y="200" as="targetPoint" />
            <Array as="points">
              <mxPoint x="710" y="200" />
            </Array>
          </mxGeometry>
        </mxCell>
        <mxCell id="JlViz4wOhdhszTuP-DQE-31" value="" style="endArrow=classic;html=1;rounded=0;entryX=0.672;entryY=-0.022;entryDx=0;entryDy=0;entryPerimeter=0;" edge="1" parent="WIyWlLk6GJQsqaUBKTNV-1" target="JlViz4wOhdhszTuP-DQE-29">
          <mxGeometry width="50" height="50" relative="1" as="geometry">
            <mxPoint x="750" y="200" as="sourcePoint" />
            <mxPoint x="750" y="250" as="targetPoint" />
          </mxGeometry>
        </mxCell>
        <mxCell id="JlViz4wOhdhszTuP-DQE-32" value="" style="endArrow=classic;html=1;rounded=0;entryX=-0.005;entryY=0.346;entryDx=0;entryDy=0;entryPerimeter=0;" edge="1" parent="WIyWlLk6GJQsqaUBKTNV-1" target="JlViz4wOhdhszTuP-DQE-29">
          <mxGeometry width="50" height="50" relative="1" as="geometry">
            <mxPoint x="640" y="340" as="sourcePoint" />
            <mxPoint x="450" y="290" as="targetPoint" />
          </mxGeometry>
        </mxCell>
      </root>
    </mxGraphModel>
  </diagram>
</mxfile>
